<mxfile host="Electron" modified="2025-04-30T06:52:20.816Z" agent="Mozilla/5.0 (Windows NT 10.0; Win64; x64) AppleWebKit/537.36 (KHTML, like Gecko) draw.io/24.6.1 Chrome/124.0.6367.207 Electron/30.0.6 Safari/537.36" etag="GKJNqCYjKD-mEH9OPzrm" version="24.6.1" type="device">
  <diagram name="페이지-1" id="DlAuRzPXGK5VabsO_cKs">
    <mxGraphModel dx="1018" dy="693" grid="1" gridSize="10" guides="1" tooltips="1" connect="1" arrows="1" fold="1" page="1" pageScale="1" pageWidth="1654" pageHeight="1169" math="0" shadow="0">
      <root>
        <mxCell id="0" />
        <mxCell id="1" parent="0" />
        <mxCell id="HunLMTVeA2-pBkI2jJto-11" value="" style="rounded=1;whiteSpace=wrap;html=1;strokeWidth=2;" vertex="1" parent="1">
          <mxGeometry x="490" y="149" width="400" height="90" as="geometry" />
        </mxCell>
        <mxCell id="HunLMTVeA2-pBkI2jJto-1" value="" style="rounded=0;whiteSpace=wrap;html=1;fillStyle=auto;fillColor=#FF0000;strokeColor=none;strokeWidth=2;" vertex="1" parent="1">
          <mxGeometry x="560" y="230" width="260" height="10" as="geometry" />
        </mxCell>
        <mxCell id="HunLMTVeA2-pBkI2jJto-2" value="" style="rounded=0;whiteSpace=wrap;html=1;fillStyle=hatch;fillColor=#000000;strokeWidth=2;" vertex="1" parent="1">
          <mxGeometry x="580" y="280" width="230" height="10" as="geometry" />
        </mxCell>
        <mxCell id="HunLMTVeA2-pBkI2jJto-3" value="" style="rounded=0;whiteSpace=wrap;html=1;fillStyle=auto;fillColor=#FF0000;strokeColor=none;strokeWidth=2;" vertex="1" parent="1">
          <mxGeometry x="380" y="330" width="190" height="10" as="geometry" />
        </mxCell>
        <mxCell id="HunLMTVeA2-pBkI2jJto-4" value="" style="rounded=0;whiteSpace=wrap;html=1;fillStyle=hatch;fillColor=#000000;strokeWidth=2;" vertex="1" parent="1">
          <mxGeometry x="380" y="380" width="650" height="10" as="geometry" />
        </mxCell>
        <mxCell id="HunLMTVeA2-pBkI2jJto-5" value="" style="rounded=0;whiteSpace=wrap;html=1;fillColor=#000000;fillStyle=hatch;strokeWidth=2;" vertex="1" parent="1">
          <mxGeometry x="580" y="330" width="230" height="10" as="geometry" />
        </mxCell>
        <mxCell id="HunLMTVeA2-pBkI2jJto-6" value="" style="rounded=0;whiteSpace=wrap;html=1;fillStyle=auto;fillColor=#FF0000;strokeColor=none;" vertex="1" parent="1">
          <mxGeometry x="820" y="330" width="210" height="10" as="geometry" />
        </mxCell>
        <mxCell id="HunLMTVeA2-pBkI2jJto-7" value="" style="rounded=0;whiteSpace=wrap;html=1;fillStyle=auto;fillColor=#FF0000;strokeColor=none;strokeWidth=2;" vertex="1" parent="1">
          <mxGeometry x="560" y="230" width="10" height="100" as="geometry" />
        </mxCell>
        <mxCell id="HunLMTVeA2-pBkI2jJto-8" value="" style="rounded=0;whiteSpace=wrap;html=1;fillStyle=auto;fillColor=#FF0000;strokeColor=none;strokeWidth=2;" vertex="1" parent="1">
          <mxGeometry x="820" y="230" width="10" height="100" as="geometry" />
        </mxCell>
        <mxCell id="HunLMTVeA2-pBkI2jJto-9" value="" style="rounded=0;whiteSpace=wrap;html=1;fillStyle=hatch;fillColor=#000000;strokeWidth=2;" vertex="1" parent="1">
          <mxGeometry x="380" y="230" width="170" height="10" as="geometry" />
        </mxCell>
        <mxCell id="HunLMTVeA2-pBkI2jJto-10" value="" style="rounded=0;whiteSpace=wrap;html=1;fillStyle=hatch;fillColor=#000000;strokeWidth=2;" vertex="1" parent="1">
          <mxGeometry x="840" y="230" width="190" height="10" as="geometry" />
        </mxCell>
        <mxCell id="HunLMTVeA2-pBkI2jJto-12" value="" style="rounded=0;whiteSpace=wrap;html=1;fillStyle=hatch;fillColor=#000000;strokeWidth=2;" vertex="1" parent="1">
          <mxGeometry x="840" y="280" width="190" height="10" as="geometry" />
        </mxCell>
        <mxCell id="HunLMTVeA2-pBkI2jJto-13" value="" style="rounded=0;whiteSpace=wrap;html=1;fillStyle=hatch;fillColor=#000000;strokeWidth=2;" vertex="1" parent="1">
          <mxGeometry x="380" y="280" width="170" height="10" as="geometry" />
        </mxCell>
        <mxCell id="HunLMTVeA2-pBkI2jJto-16" value="" style="rounded=0;whiteSpace=wrap;html=1;fillStyle=hatch;fillColor=#000000;strokeWidth=2;" vertex="1" parent="1">
          <mxGeometry x="800" y="80" width="100" height="10" as="geometry" />
        </mxCell>
        <mxCell id="HunLMTVeA2-pBkI2jJto-17" value="" style="rounded=0;whiteSpace=wrap;html=1;fillStyle=auto;fillColor=#FF0000;strokeColor=none;" vertex="1" parent="1">
          <mxGeometry x="800" y="110" width="100" height="10" as="geometry" />
        </mxCell>
        <mxCell id="HunLMTVeA2-pBkI2jJto-18" value="RF trace" style="text;html=1;align=left;verticalAlign=middle;whiteSpace=wrap;rounded=0;fontSize=20;fontStyle=1" vertex="1" parent="1">
          <mxGeometry x="920" y="100" width="90" height="30" as="geometry" />
        </mxCell>
        <mxCell id="HunLMTVeA2-pBkI2jJto-19" value="GND plane" style="text;html=1;align=left;verticalAlign=middle;whiteSpace=wrap;rounded=0;fontSize=20;fontStyle=1" vertex="1" parent="1">
          <mxGeometry x="920" y="70" width="120" height="30" as="geometry" />
        </mxCell>
        <mxCell id="HunLMTVeA2-pBkI2jJto-20" value="EMC shiled can" style="text;html=1;align=center;verticalAlign=middle;whiteSpace=wrap;rounded=0;fontSize=20;fontStyle=1" vertex="1" parent="1">
          <mxGeometry x="590" y="170" width="200" height="30" as="geometry" />
        </mxCell>
      </root>
    </mxGraphModel>
  </diagram>
</mxfile>
